<?xml version="1.0" standalone="no"?>
<!DOCTYPE svg PUBLIC "-//W3C//DTD SVG 20010904//EN"
 "http://www.w3.org/TR/2001/REC-SVG-20010904/DTD/svg10.dtd">
<svg version="1.0" xmlns="http://www.w3.org/2000/svg"
 width="404.000000pt" height="135.000000pt" viewBox="0 0 404.000000 135.000000"
 preserveAspectRatio="xMidYMid meet">

<g transform="translate(0.000000,135.000000) scale(0.100000,-0.100000)"
fill="#000000" stroke="none">
<path d="M573 1339 c-254 -29 -484 -234 -550 -489 -20 -79 -22 -234 -4 -310 7
-30 33 -97 57 -147 74 -154 204 -269 376 -331 66 -24 87 -27 208 -27 121 0
143 3 213 28 218 76 383 261 433 483 33 149 4 341 -70 467 -44 76 -115 155
-180 202 -148 105 -301 144 -483 124z m218 -69 c10 -6 19 -17 19 -25 0 -11 -5
-10 -20 5 -24 24 -34 25 -55 4 -21 -21 -16 -83 7 -98 13 -8 23 -8 38 2 11 7
20 8 20 3 0 -14 -38 -24 -66 -17 -47 12 -54 91 -11 121 25 18 41 19 68 5z
m-283 -45 c2 -11 11 -28 19 -37 20 -23 11 -43 -28 -63 -36 -19 -42 -15 -59 40
-7 22 -17 45 -22 52 -13 16 19 34 57 30 21 -1 31 -8 33 -22z m440 -86 c-4 -33
-5 -65 -2 -70 3 -5 0 -9 -6 -9 -6 0 -13 13 -16 28 -7 36 -39 58 -60 41 -8 -6
-16 -10 -19 -8 -6 6 98 88 106 83 3 -2 2 -31 -3 -65z m-602 19 c5 -8 2 -9 -10
-5 -48 19 -75 -44 -35 -84 26 -26 60 -21 76 11 12 24 13 24 13 3 0 -24 -34
-53 -63 -53 -26 0 -67 45 -67 75 0 46 66 87 86 53z m778 -110 c-5 -7 -10 -4
-15 9 -11 30 -23 34 -45 18 -15 -11 -17 -16 -6 -26 6 -7 12 -17 12 -23 0 -5
-6 -1 -14 10 -14 19 -15 19 -38 -4 -14 -12 -28 -19 -32 -15 -4 4 14 28 41 54
l48 46 28 -29 c15 -16 24 -34 21 -40z m-356 28 c108 -29 210 -116 260 -224 24
-51 27 -69 27 -167 0 -101 -2 -115 -29 -170 -58 -117 -173 -203 -304 -226
-168 -30 -350 67 -428 226 -27 55 -29 69 -29 170 0 98 3 116 27 167 49 105
154 197 257 224 62 17 155 17 219 0z m-538 -96 l42 -51 -43 7 -44 7 30 -33 30
-33 -49 7 c-27 3 -63 6 -79 6 -23 0 -28 3 -20 11 6 6 32 10 57 8 25 -3 46 -1
46 2 0 16 -41 41 -60 36 -18 -5 -19 -3 -9 9 9 11 24 13 58 8 l46 -6 -32 34
c-18 19 -33 37 -33 42 0 13 17 -2 60 -54z m968 -32 c15 -41 16 -52 5 -55 -4
-2 -9 9 -9 23 -2 34 -8 38 -33 24 -17 -9 -19 -15 -11 -30 16 -30 11 -37 -9
-11 -12 16 -24 22 -35 18 -20 -8 -21 -31 0 -51 13 -13 13 -16 1 -16 -16 0 -44
57 -33 67 8 8 98 60 106 62 4 1 11 -14 18 -31z m-928 -418 c14 -26 4 -60 -18
-59 -11 0 -12 3 -4 6 6 2 12 16 12 30 0 36 -32 26 -42 -13 -11 -44 -31 -59
-58 -44 -16 9 -20 19 -18 42 2 17 9 33 16 36 11 3 11 0 1 -16 -14 -22 -5 -56
14 -50 6 3 17 18 22 34 6 16 14 35 18 42 13 19 45 14 57 -8z m864 10 c17 0 56
-38 56 -55 0 -7 -8 -21 -17 -30 -32 -32 -123 2 -123 46 0 21 39 51 58 44 8 -3
19 -5 26 -5z m-824 -119 c0 -5 -20 -21 -45 -35 -25 -15 -45 -31 -45 -37 0 -6
-4 -7 -10 -4 -18 11 -10 22 38 54 49 32 62 37 62 22z m770 -32 c27 -17 48 -35
44 -40 -6 -10 -13 -7 -56 23 -16 11 -32 16 -38 13 -5 -3 -10 -4 -10 -1 0 2 -3
11 -6 20 -9 24 10 19 66 -15z m-725 -93 l-7 -61 30 35 c17 19 33 32 36 29 3
-3 -15 -25 -40 -50 l-46 -44 4 62 3 62 -30 -29 c-49 -48 -52 -34 -4 18 24 27
48 46 52 44 5 -2 6 -32 2 -66z m664 19 c35 -40 38 -57 15 -79 -22 -22 -38 -20
-73 9 -39 34 -48 61 -25 86 25 28 48 23 83 -16z m-135 -90 c0 -22 -4 -48 -8
-57 -10 -22 7 -24 28 -3 17 18 26 19 26 4 0 -11 -69 -43 -77 -35 -3 3 0 19 6
37 6 18 11 42 11 55 0 39 -49 40 -51 0 -1 -17 -2 -18 -6 -3 -7 26 16 48 46 45
23 -3 26 -7 25 -43z m-352 18 c10 -9 18 -23 17 -32 0 -11 -3 -10 -11 6 -20 42
-67 41 -86 -3 -7 -14 -12 -31 -12 -39 0 -20 38 -43 63 -39 22 4 22 4 -1 -7
-19 -10 -27 -9 -50 8 -34 25 -39 62 -12 96 25 31 64 36 92 10z m149 -30 c12
-14 12 -16 -1 -11 -57 21 -60 20 -60 -6 0 -21 5 -26 26 -26 14 0 23 -4 20 -9
-3 -5 -14 -7 -25 -4 -14 3 -20 -2 -23 -22 -5 -25 -4 -27 28 -23 21 2 33 0 31
-6 -5 -14 -32 -19 -62 -12 -21 5 -22 11 -21 71 l1 65 36 0 c22 0 42 -7 50 -17z"/>
<path d="M446 1231 c-10 -16 5 -42 23 -39 21 4 21 42 -1 46 -9 2 -19 -1 -22
-7z"/>
<path d="M465 1158 c10 -32 13 -34 33 -22 26 17 20 39 -11 42 -26 3 -28 1 -22
-20z"/>
<path d="M907 1162 c-17 -18 -17 -20 -1 -26 22 -8 26 -3 22 24 -3 22 -3 22
-21 2z"/>
<path d="M630 983 c0 -7 5 -24 12 -38 9 -21 8 -32 -5 -61 -23 -48 -21 -66 3
-26 24 39 25 70 5 108 -8 16 -15 24 -15 17z"/>
<path d="M693 883 l-1 -67 15 35 c11 30 12 40 0 67 -13 31 -13 31 -14 -35z"/>
<path d="M581 861 c-1 -27 2 -32 11 -23 8 8 8 17 0 34 -10 22 -11 21 -11 -11z"/>
<path d="M460 743 c0 -47 38 -130 75 -163 l27 -25 -54 -5 c-52 -5 -53 -5 -28
-20 19 -11 58 -15 165 -15 107 0 146 4 165 15 25 15 24 15 -28 18 l-53 3 34
38 c19 21 42 59 52 84 20 52 50 63 64 25 11 -30 4 -48 -28 -76 -23 -21 -23
-22 -3 -13 30 16 54 55 50 83 -2 14 -15 29 -35 38 -18 8 -33 23 -33 33 0 16
-16 17 -185 17 l-185 0 0 -37z"/>
<path d="M1068 513 c-10 -12 -9 -18 7 -29 29 -22 86 -29 96 -13 11 19 -7 35
-53 47 -30 8 -40 7 -50 -5z"/>
<path d="M940 316 c0 -23 50 -76 71 -76 27 0 24 29 -8 62 -28 30 -63 37 -63
14z"/>
<path d="M1472 853 c9 -10 34 -65 54 -123 20 -58 40 -108 44 -113 3 -4 17 26
30 68 13 41 26 75 30 75 3 0 17 -32 30 -71 14 -39 27 -72 30 -74 3 -2 24 52
47 121 23 68 38 122 34 119 -4 -2 -21 -43 -37 -90 -16 -47 -31 -85 -35 -85 -3
0 -14 27 -24 60 -23 75 -47 116 -74 123 l-21 5 20 -25 c11 -14 20 -35 20 -46
0 -23 -32 -117 -41 -117 -3 0 -16 34 -29 75 -24 75 -38 96 -74 109 -19 6 -19
6 -4 -11z"/>
<path d="M1959 847 c-89 -60 -70 -208 30 -238 45 -13 103 6 122 43 11 21 10
21 -16 -4 -57 -57 -145 -26 -158 56 -7 43 6 102 28 126 39 43 113 30 135 -23
8 -21 9 -20 9 6 1 23 -5 31 -34 43 -48 20 -77 18 -116 -9z"/>
<path d="M2820 858 c-13 -7 -35 -29 -48 -48 -49 -72 -10 -188 69 -204 40 -8
99 14 117 44 16 25 15 25 -14 -2 -61 -56 -144 -26 -160 57 -8 43 8 105 33 128
42 37 105 26 130 -23 12 -23 13 -23 13 -4 0 47 -87 79 -140 52z"/>
<path d="M2260 834 c6 -14 10 -71 10 -126 l0 -100 64 4 c78 5 109 26 104 71
-3 25 -12 37 -46 54 -2 1 6 11 17 22 53 53 7 101 -98 101 l-61 0 10 -26z m120
-4 c11 -11 20 -26 20 -34 0 -21 -48 -56 -76 -56 -22 0 -24 4 -24 55 0 54 0 55
30 55 17 0 39 -9 50 -20z m15 -120 c27 -29 10 -71 -32 -83 -51 -15 -63 -5 -63
53 l0 50 38 0 c26 0 45 -7 57 -20z"/>
<path d="M3147 773 c-19 -49 -43 -105 -52 -126 -9 -22 -12 -36 -7 -33 5 3 15
19 22 36 12 29 15 30 71 30 42 0 59 -4 59 -13 0 -19 43 -57 64 -57 17 0 17 1
-2 18 -11 9 -39 65 -63 125 -24 59 -46 107 -49 107 -4 0 -23 -39 -43 -87z m56
-16 c9 -23 17 -46 17 -50 0 -4 -20 -7 -44 -7 l-45 0 21 50 c11 28 23 50 27 50
3 0 14 -19 24 -43z"/>
<path d="M3428 854 c9 -4 12 -39 12 -125 0 -99 3 -119 15 -119 12 0 15 13 15
60 l0 60 48 2 47 1 -45 6 -45 6 -3 53 -3 52 45 0 c35 0 48 -5 61 -22 l16 -23
-3 25 c-3 24 -5 25 -88 27 -47 1 -79 0 -72 -3z"/>
<path d="M3718 848 c8 -8 12 -51 12 -125 l0 -114 71 3 c64 3 73 6 88 28 l16
25 -29 -23 c-20 -15 -42 -22 -72 -22 l-44 0 0 55 0 55 50 0 c28 0 50 5 50 10
0 6 -22 10 -50 10 l-50 0 0 50 0 50 49 0 c40 0 53 -4 65 -22 16 -23 21 -13 10
16 -5 13 -23 16 -92 16 -67 0 -83 -3 -74 -12z"/>
</g>
</svg>
